<mxfile host="65bd71144e">
    <diagram id="yH5BhOkYe0fMXzbH4QcV" name="Page-1">
        <mxGraphModel dx="1611" dy="869" grid="1" gridSize="10" guides="1" tooltips="1" connect="1" arrows="1" fold="1" page="1" pageScale="1" pageWidth="1169" pageHeight="827" math="0" shadow="0">
            <root>
                <mxCell id="0"/>
                <mxCell id="1" parent="0"/>
                <mxCell id="42" value="&lt;p style=&quot;margin:0px;margin-top:4px;text-align:center;&quot;&gt;&amp;lt;&amp;lt;baseimage&amp;gt;&amp;gt;&lt;br&gt;&lt;b&gt;openjdk 8-jre&lt;/b&gt;&lt;/p&gt;&lt;hr&gt;&lt;p style=&quot;margin:0px;margin-left:8px;text-align:center;&quot;&gt;&lt;br&gt;&lt;/p&gt;" style="shape=rect;html=1;overflow=fill;whiteSpace=wrap;align=center;fillColor=none;" vertex="1" parent="1">
                    <mxGeometry x="780" y="640" width="169" height="60" as="geometry"/>
                </mxCell>
                <UserObject label="APACHE-KNOX-DOCKER" link="https://github.com/eliezerb2/apache-knox-docker/blob/master/knoxgw" id="48">
                    <mxCell style="shape=folder;xSize=90;align=left;spacingLeft=10;align=left;verticalAlign=top;spacingLeft=5;spacingTop=-4;tabWidth=160;tabHeight=20;tabPosition=left;html=1;recursiveResize=0;fillColor=none;" vertex="1" parent="1">
                        <mxGeometry x="50" y="40" width="920" height="570" as="geometry"/>
                    </mxCell>
                </UserObject>
                <mxCell id="19" value="&lt;p style=&quot;margin:0px;margin-top:4px;text-align:center;&quot;&gt;&amp;lt;&amp;lt;service&amp;gt;&amp;gt;&lt;br&gt;&lt;b&gt;knoxgw&lt;/b&gt;&lt;/p&gt;&lt;hr&gt;&lt;p style=&quot;margin:0px;margin-left:8px;text-align:center;&quot;&gt;&lt;br&gt;&lt;/p&gt;" style="shape=rect;html=1;overflow=fill;whiteSpace=wrap;align=center;fillColor=none;" vertex="1" parent="48">
                    <mxGeometry x="380" y="30" width="170" height="60" as="geometry"/>
                </mxCell>
                <mxCell id="39" value="" style="edgeStyle=elbowEdgeStyle;html=1;endArrow=open;endSize=12;dashed=1;verticalAlign=bottom;" edge="1" parent="48" source="19" target="55">
                    <mxGeometry width="160" relative="1" as="geometry">
                        <mxPoint x="-715" y="-30" as="sourcePoint"/>
                        <mxPoint x="-715" y="-70" as="targetPoint"/>
                        <Array as="points">
                            <mxPoint x="600" y="60"/>
                        </Array>
                    </mxGeometry>
                </mxCell>
                <UserObject label="&lt;p style=&quot;margin:0px;margin-top:4px;text-align:center;&quot;&gt;&lt;b&gt;.env&lt;/b&gt;&lt;/p&gt;&lt;hr&gt;&lt;p style=&quot;font-size:10px;margin:0px;text-align:center;&quot;&gt;Configuration Parameters[*]&lt;/p&gt;" link="https://github.com/eliezerb2/apache-knox-docker/blob/master/.env" id="14">
                    <mxCell style="shape=rect;html=1;overflow=fill;whiteSpace=wrap;fillColor=none;" vertex="1" parent="48">
                        <mxGeometry x="10" y="120" width="170" height="60" as="geometry"/>
                    </mxCell>
                </UserObject>
                <UserObject label="&lt;p style=&quot;margin:0px;margin-top:4px;text-align:center;&quot;&gt;docker-compose.yml&lt;br&gt;&lt;/p&gt;&lt;hr&gt;&lt;p style=&quot;font-size:10px;margin:0px;text-align:center;&quot;&gt;&lt;br&gt;&lt;/p&gt;" link="https://github.com/eliezerb2/apache-knox-docker/blob/master/docker-compose.yml" id="17">
                    <mxCell style="shape=rect;html=1;overflow=fill;whiteSpace=wrap;fillColor=none;" vertex="1" parent="48">
                        <mxGeometry x="170" y="30" width="170" height="60" as="geometry"/>
                    </mxCell>
                </UserObject>
                <mxCell id="23" value="&lt;p style=&quot;margin:0px;margin-top:4px;text-align:center;&quot;&gt;&amp;lt;&amp;lt;service&amp;gt;&amp;gt;&lt;br&gt;&lt;b&gt;servicea1&lt;/b&gt;&lt;/p&gt;&lt;hr&gt;&lt;p style=&quot;margin:0px;margin-left:8px;text-align:center;&quot;&gt;&lt;br&gt;&lt;/p&gt;" style="shape=rect;html=1;overflow=fill;whiteSpace=wrap;align=center;fillColor=none;" vertex="1" parent="48">
                    <mxGeometry x="30" y="210" width="170" height="60" as="geometry"/>
                </mxCell>
                <mxCell id="26" value="&lt;p style=&quot;margin:0px;margin-top:4px;text-align:center;&quot;&gt;&amp;lt;&amp;lt;service&amp;gt;&amp;gt;&lt;br&gt;&lt;b&gt;servicea2&lt;/b&gt;&lt;/p&gt;&lt;hr&gt;&lt;p style=&quot;margin:0px;margin-left:8px;text-align:center;&quot;&gt;&lt;br&gt;&lt;/p&gt;" style="shape=rect;html=1;overflow=fill;whiteSpace=wrap;align=center;fillColor=none;" vertex="1" parent="48">
                    <mxGeometry x="220" y="120" width="170" height="60" as="geometry"/>
                </mxCell>
                <mxCell id="16" value="" style="edgeStyle=elbowEdgeStyle;html=1;endArrow=open;endSize=12;dashed=1;verticalAlign=bottom;" edge="1" parent="48" source="17" target="14">
                    <mxGeometry width="160" relative="1" as="geometry">
                        <mxPoint x="-131.66666666666674" y="80" as="sourcePoint"/>
                        <mxPoint x="-100" as="targetPoint"/>
                        <Array as="points">
                            <mxPoint x="95" y="60"/>
                        </Array>
                    </mxGeometry>
                </mxCell>
                <mxCell id="20" value="" style="align=right;html=1;verticalAlign=bottom;endArrow=none;startArrow=diamondThin;startSize=14;startFill=1;edgeStyle=none;" edge="1" parent="48" source="17" target="19">
                    <mxGeometry x="1" relative="1" as="geometry">
                        <mxPoint x="-180" y="170" as="sourcePoint"/>
                        <mxPoint x="-20" y="170" as="targetPoint"/>
                    </mxGeometry>
                </mxCell>
                <mxCell id="24" value="" style="align=right;html=1;verticalAlign=bottom;endArrow=none;startArrow=diamondThin;startSize=14;startFill=1;edgeStyle=elbowEdgeStyle;" edge="1" parent="48" source="17" target="23">
                    <mxGeometry x="1" relative="1" as="geometry">
                        <mxPoint x="-210.38461538461536" y="150" as="sourcePoint"/>
                        <mxPoint x="-141.1538461538462" y="210" as="targetPoint"/>
                        <Array as="points">
                            <mxPoint x="190" y="140"/>
                            <mxPoint x="200" y="140"/>
                        </Array>
                    </mxGeometry>
                </mxCell>
                <mxCell id="25" value="" style="align=right;html=1;verticalAlign=bottom;endArrow=none;startArrow=diamondThin;startSize=14;startFill=1;edgeStyle=elbowEdgeStyle;" edge="1" target="26" parent="48" source="17">
                    <mxGeometry x="1" relative="1" as="geometry">
                        <mxPoint x="-227.30769230769226" y="250" as="sourcePoint"/>
                        <mxPoint x="-96.15384615384619" y="320" as="targetPoint"/>
                    </mxGeometry>
                </mxCell>
                <UserObject label="knoxgw" link="https://github.com/eliezerb2/apache-knox-docker/blob/master/knoxgw" id="32">
                    <mxCell style="shape=folder;xSize=90;align=left;spacingLeft=10;align=left;verticalAlign=top;spacingLeft=5;spacingTop=-4;tabWidth=70;tabHeight=20;tabPosition=left;html=1;recursiveResize=0;fillColor=none;" vertex="1" parent="48">
                        <mxGeometry x="470" y="110" width="440" height="450" as="geometry"/>
                    </mxCell>
                </UserObject>
                <UserObject label="&lt;p style=&quot;margin:0px;margin-top:4px;text-align:center;&quot;&gt;Dockerfile&lt;br&gt;&lt;/p&gt;&lt;hr&gt;&lt;p style=&quot;font-size:10px;margin:0px;text-align:center;&quot;&gt;&lt;br&gt;&lt;/p&gt;" link="https://github.com/eliezerb2/apache-knox-docker/blob/master/knoxgw/Dockerfile" id="36">
                    <mxCell style="shape=rect;html=1;overflow=fill;whiteSpace=wrap;fillColor=none;" vertex="1" parent="32">
                        <mxGeometry x="9" y="380" width="170" height="60" as="geometry"/>
                    </mxCell>
                </UserObject>
                <mxCell id="40" value="&lt;p style=&quot;margin:0px;margin-top:4px;text-align:center;&quot;&gt;&amp;lt;&amp;lt;buildstage&amp;gt;&amp;gt;&lt;br&gt;&lt;b&gt;openjdk&lt;/b&gt;&lt;/p&gt;&lt;hr&gt;&lt;p style=&quot;margin:0px;margin-left:8px;text-align:center;&quot;&gt;&lt;br&gt;&lt;/p&gt;" style="shape=rect;html=1;overflow=fill;whiteSpace=wrap;align=center;fillColor=none;" vertex="1" parent="32">
                    <mxGeometry x="260" y="380" width="170" height="60" as="geometry"/>
                </mxCell>
                <mxCell id="41" value="" style="align=right;html=1;verticalAlign=bottom;endArrow=none;startArrow=diamondThin;startSize=14;startFill=1;edgeStyle=elbowEdgeStyle;" edge="1" target="40" parent="32" source="36">
                    <mxGeometry x="1" relative="1" as="geometry">
                        <mxPoint x="100" y="110" as="sourcePoint"/>
                        <mxPoint x="288.8461538461538" y="210" as="targetPoint"/>
                        <Array as="points">
                            <mxPoint x="200" y="420"/>
                            <mxPoint x="180" y="460"/>
                            <mxPoint x="220" y="400"/>
                        </Array>
                    </mxGeometry>
                </mxCell>
                <mxCell id="52" value="&lt;p style=&quot;margin:0px;margin-top:4px;text-align:center;&quot;&gt;&amp;lt;&amp;lt;buildstage&amp;gt;&amp;gt;&lt;br&gt;&lt;b&gt;knox_base&lt;/b&gt;&lt;/p&gt;&lt;hr&gt;&lt;p style=&quot;margin:0px;margin-left:8px;text-align:center;&quot;&gt;&lt;br&gt;&lt;/p&gt;" style="shape=rect;html=1;overflow=fill;whiteSpace=wrap;align=center;fillColor=none;" vertex="1" parent="32">
                    <mxGeometry x="30" y="270" width="170" height="60" as="geometry"/>
                </mxCell>
                <mxCell id="54" value="" style="align=right;html=1;verticalAlign=bottom;endArrow=none;startArrow=diamondThin;startSize=14;startFill=1;edgeStyle=elbowEdgeStyle;" edge="1" parent="32" source="36" target="52">
                    <mxGeometry x="1" relative="1" as="geometry">
                        <mxPoint x="425.29999999999995" y="280" as="sourcePoint"/>
                        <mxPoint x="413.70000000000005" y="320" as="targetPoint"/>
                    </mxGeometry>
                </mxCell>
                <mxCell id="55" value="&lt;p style=&quot;margin:0px;margin-top:4px;text-align:center;&quot;&gt;&amp;lt;&amp;lt;buildstage&amp;gt;&amp;gt;&lt;br&gt;&lt;b&gt;knoxgw&lt;/b&gt;&lt;/p&gt;&lt;hr&gt;&lt;p style=&quot;margin:0px;margin-left:8px;text-align:center;&quot;&gt;&lt;br&gt;&lt;/p&gt;" style="shape=rect;html=1;overflow=fill;whiteSpace=wrap;align=center;fillColor=none;" vertex="1" parent="32">
                    <mxGeometry x="9" y="30" width="170" height="60" as="geometry"/>
                </mxCell>
                <mxCell id="56" value="" style="align=right;html=1;verticalAlign=bottom;endArrow=none;startArrow=diamondThin;startSize=14;startFill=1;edgeStyle=elbowEdgeStyle;" edge="1" parent="32" source="36" target="55">
                    <mxGeometry x="1" relative="1" as="geometry">
                        <mxPoint x="453.3333333333335" y="270" as="sourcePoint"/>
                        <mxPoint x="566.6666666666665" y="390" as="targetPoint"/>
                        <Array as="points">
                            <mxPoint x="20" y="210"/>
                        </Array>
                    </mxGeometry>
                </mxCell>
                <UserObject label="services" link="https://github.com/eliezerb2/apache-knox-docker/blob/master/knoxgw/services" id="58">
                    <mxCell style="shape=folder;xSize=90;align=left;spacingLeft=10;align=left;verticalAlign=top;spacingLeft=5;spacingTop=-4;tabWidth=70;tabHeight=20;tabPosition=left;html=1;recursiveResize=0;fillColor=none;" vertex="1" parent="32">
                        <mxGeometry x="250" y="30" width="190" height="170" as="geometry"/>
                    </mxCell>
                </UserObject>
                <mxCell id="60" value="&lt;p style=&quot;margin:0px;margin-top:4px;text-align:center;&quot;&gt;&lt;b&gt;rewrite.xml&lt;/b&gt;&lt;/p&gt;&lt;hr&gt;&lt;p style=&quot;margin:0px;margin-left:8px;text-align:center;&quot;&gt;&lt;br&gt;&lt;/p&gt;" style="shape=rect;html=1;overflow=fill;whiteSpace=wrap;align=center;fillColor=none;" vertex="1" parent="58">
                    <mxGeometry x="10" y="30" width="170" height="60" as="geometry"/>
                </mxCell>
                <mxCell id="69" value="&lt;p style=&quot;margin:0px;margin-top:4px;text-align:center;&quot;&gt;&lt;b&gt;service.xml&lt;/b&gt;&lt;/p&gt;&lt;hr&gt;&lt;p style=&quot;margin:0px;margin-left:8px;text-align:center;&quot;&gt;&lt;br&gt;&lt;/p&gt;" style="shape=rect;html=1;overflow=fill;whiteSpace=wrap;align=center;fillColor=none;" vertex="1" parent="58">
                    <mxGeometry x="10" y="100" width="170" height="60" as="geometry"/>
                </mxCell>
                <mxCell id="70" value="copy from" style="edgeStyle=elbowEdgeStyle;html=1;endArrow=open;endSize=12;dashed=1;verticalAlign=bottom;" edge="1" parent="32" source="55" target="58">
                    <mxGeometry width="160" relative="1" as="geometry">
                        <mxPoint x="133.375" y="210" as="sourcePoint"/>
                        <mxPoint x="207.125" y="510" as="targetPoint"/>
                        <Array as="points">
                            <mxPoint x="340" y="60"/>
                        </Array>
                    </mxGeometry>
                </mxCell>
                <mxCell id="71" value="copy from" style="edgeStyle=elbowEdgeStyle;html=1;endArrow=open;endSize=12;dashed=1;verticalAlign=bottom;" edge="1" target="72" parent="32" source="55">
                    <mxGeometry width="160" relative="1" as="geometry">
                        <mxPoint x="548" y="384.84330484330485" as="sourcePoint"/>
                        <mxPoint x="305.125" y="760" as="targetPoint"/>
                        <Array as="points">
                            <mxPoint x="90" y="120"/>
                        </Array>
                    </mxGeometry>
                </mxCell>
                <mxCell id="75" value="&lt;p style=&quot;margin:0px;margin-top:4px;text-align:center;&quot;&gt;knox-pw.expect&lt;/p&gt;&lt;hr&gt;&lt;p style=&quot;margin:0px;margin-left:8px;text-align:center;&quot;&gt;&lt;br&gt;&lt;/p&gt;" style="shape=rect;html=1;overflow=fill;whiteSpace=wrap;align=center;fillColor=none;" vertex="1" parent="32">
                    <mxGeometry x="260" y="305" width="170" height="60" as="geometry"/>
                </mxCell>
                <mxCell id="76" value="run" style="edgeStyle=elbowEdgeStyle;html=1;endArrow=open;endSize=12;dashed=1;verticalAlign=bottom;" edge="1" parent="32" source="52" target="75">
                    <mxGeometry width="160" relative="1" as="geometry">
                        <mxPoint x="622.5" y="340" as="sourcePoint"/>
                        <mxPoint x="617.5" y="400" as="targetPoint"/>
                        <Array as="points">
                            <mxPoint x="220" y="320"/>
                            <mxPoint x="280" y="320"/>
                        </Array>
                    </mxGeometry>
                </mxCell>
                <mxCell id="79" value="&lt;p style=&quot;margin:0px;margin-top:4px;text-align:center;&quot;&gt;run-knox.sh&lt;/p&gt;&lt;hr&gt;&lt;p style=&quot;margin:0px;margin-left:8px;text-align:center;&quot;&gt;&lt;br&gt;&lt;/p&gt;" style="shape=rect;html=1;overflow=fill;whiteSpace=wrap;align=center;fillColor=none;" vertex="1" parent="32">
                    <mxGeometry x="260" y="235" width="170" height="60" as="geometry"/>
                </mxCell>
                <mxCell id="80" value="run" style="edgeStyle=elbowEdgeStyle;html=1;endArrow=open;endSize=12;dashed=1;verticalAlign=bottom;" edge="1" target="79" parent="32" source="52">
                    <mxGeometry width="160" relative="1" as="geometry">
                        <mxPoint x="374.11111111111086" y="437.5" as="sourcePoint"/>
                        <mxPoint x="383.5" y="387.5" as="targetPoint"/>
                        <Array as="points">
                            <mxPoint x="220" y="280"/>
                            <mxPoint x="260" y="280"/>
                        </Array>
                    </mxGeometry>
                </mxCell>
                <mxCell id="115" value="" style="edgeStyle=elbowEdgeStyle;html=1;endSize=12;endArrow=block;endFill=0;" edge="1" parent="32" source="52" target="40">
                    <mxGeometry width="160" relative="1" as="geometry">
                        <mxPoint x="309.5" y="430" as="sourcePoint"/>
                        <mxPoint x="320" y="500" as="targetPoint"/>
                        <Array as="points">
                            <mxPoint x="190" y="400"/>
                            <mxPoint x="190" y="380"/>
                            <mxPoint x="190" y="350"/>
                        </Array>
                    </mxGeometry>
                </mxCell>
                <mxCell id="116" value="" style="edgeStyle=elbowEdgeStyle;html=1;endSize=12;endArrow=block;endFill=0;" edge="1" parent="32" source="55" target="52">
                    <mxGeometry width="160" relative="1" as="geometry">
                        <mxPoint x="521.6666666666665" y="520" as="sourcePoint"/>
                        <mxPoint x="558.3333333333335" y="550" as="targetPoint"/>
                        <Array as="points">
                            <mxPoint x="40" y="170"/>
                        </Array>
                    </mxGeometry>
                </mxCell>
                <UserObject label="topologies" link="https://github.com/eliezerb2/apache-knox-docker/blob/master/knoxgw/services" id="72">
                    <mxCell style="shape=folder;xSize=90;align=left;spacingLeft=10;align=left;verticalAlign=top;spacingLeft=5;spacingTop=-4;tabWidth=70;tabHeight=20;tabPosition=left;html=1;recursiveResize=0;fillColor=none;" vertex="1" parent="32">
                        <mxGeometry x="50" y="150" width="190" height="100" as="geometry"/>
                    </mxCell>
                </UserObject>
                <mxCell id="73" value="&lt;p style=&quot;margin:0px;margin-top:4px;text-align:center;&quot;&gt;&lt;b&gt;anyservice.xml&lt;/b&gt;&lt;/p&gt;&lt;hr&gt;&lt;p style=&quot;margin:0px;margin-left:8px;text-align:center;&quot;&gt;&lt;br&gt;&lt;/p&gt;" style="shape=rect;html=1;overflow=fill;whiteSpace=wrap;align=center;fillColor=none;" vertex="1" parent="72">
                    <mxGeometry x="10" y="30" width="170" height="60" as="geometry"/>
                </mxCell>
                <mxCell id="106" value="&lt;p style=&quot;margin:0px;margin-top:4px;text-align:center;&quot;&gt;&amp;lt;&amp;lt;configuration&amp;gt;&amp;gt;&lt;br&gt;&lt;b&gt;servicea&lt;/b&gt;&lt;/p&gt;&lt;hr&gt;&lt;p style=&quot;margin:0px;margin-left:8px;text-align:center;&quot;&gt;&lt;br&gt;&lt;/p&gt;" style="shape=rect;html=1;overflow=fill;whiteSpace=wrap;align=center;fillColor=none;" vertex="1" parent="48">
                    <mxGeometry x="80" y="310" width="170" height="60" as="geometry"/>
                </mxCell>
                <mxCell id="108" value="" style="edgeStyle=elbowEdgeStyle;html=1;endSize=12;endArrow=block;endFill=0;" edge="1" parent="48" source="26" target="106">
                    <mxGeometry width="160" relative="1" as="geometry">
                        <mxPoint x="-100" y="570" as="sourcePoint"/>
                        <mxPoint x="60" y="570" as="targetPoint"/>
                        <Array as="points">
                            <mxPoint x="230" y="210"/>
                        </Array>
                    </mxGeometry>
                </mxCell>
                <mxCell id="109" value="" style="edgeStyle=elbowEdgeStyle;html=1;endSize=12;endArrow=block;endFill=0;elbow=vertical;" edge="1" parent="48" source="23" target="106">
                    <mxGeometry width="160" relative="1" as="geometry">
                        <mxPoint x="125" y="360" as="sourcePoint"/>
                        <mxPoint x="125" y="460" as="targetPoint"/>
                        <Array as="points">
                            <mxPoint x="100" y="210"/>
                            <mxPoint x="110" y="180"/>
                        </Array>
                    </mxGeometry>
                </mxCell>
                <mxCell id="110" value="" style="align=right;html=1;verticalAlign=bottom;endArrow=none;startArrow=diamondThin;startSize=14;startFill=1;edgeStyle=elbowEdgeStyle;" edge="1" parent="48" source="17" target="106">
                    <mxGeometry x="1" relative="1" as="geometry">
                        <mxPoint x="307.608695652174" y="130" as="sourcePoint"/>
                        <mxPoint x="152.391304347826" y="300" as="targetPoint"/>
                    </mxGeometry>
                </mxCell>
                <mxCell id="111" value="&lt;p style=&quot;margin:0px;margin-top:4px;text-align:center;&quot;&gt;&amp;lt;&amp;lt;configuration&amp;gt;&amp;gt;&lt;br&gt;&lt;b&gt;healthcheck-default&lt;/b&gt;&lt;/p&gt;&lt;hr&gt;&lt;p style=&quot;margin:0px;margin-left:8px;text-align:center;&quot;&gt;&lt;br&gt;&lt;/p&gt;" style="shape=rect;html=1;overflow=fill;whiteSpace=wrap;align=center;fillColor=none;" vertex="1" parent="48">
                    <mxGeometry x="270" y="410" width="170" height="60" as="geometry"/>
                </mxCell>
                <mxCell id="125" value="" style="align=right;html=1;verticalAlign=bottom;endArrow=none;startArrow=diamondThin;startSize=14;startFill=0;edgeStyle=elbowEdgeStyle;" edge="1" parent="48" source="106" target="111">
                    <mxGeometry x="1" relative="1" as="geometry">
                        <mxPoint x="159" y="720.0043231441048" as="sourcePoint"/>
                        <mxPoint x="100" y="740.6156768558951" as="targetPoint"/>
                        <Array as="points">
                            <mxPoint x="230" y="400"/>
                            <mxPoint x="230" y="370"/>
                            <mxPoint x="230" y="350"/>
                            <mxPoint x="240" y="370"/>
                            <mxPoint x="230" y="440"/>
                        </Array>
                    </mxGeometry>
                </mxCell>
                <mxCell id="124" value="" style="align=right;html=1;verticalAlign=bottom;endArrow=none;startArrow=diamondThin;startSize=14;startFill=0;edgeStyle=elbowEdgeStyle;" edge="1" parent="48" source="19" target="111">
                    <mxGeometry x="1" relative="1" as="geometry">
                        <mxPoint x="149" y="710.0043231441048" as="sourcePoint"/>
                        <mxPoint x="90" y="730.6156768558951" as="targetPoint"/>
                        <Array as="points">
                            <mxPoint x="460" y="240"/>
                            <mxPoint x="470" y="270"/>
                        </Array>
                    </mxGeometry>
                </mxCell>
                <UserObject label="servicea2" link="https://github.com/eliezerb2/apache-knox-docker/blob/master/knoxgw" id="117">
                    <mxCell style="shape=folder;xSize=90;align=left;spacingLeft=10;align=left;verticalAlign=top;spacingLeft=5;spacingTop=-4;tabWidth=70;tabHeight=20;tabPosition=left;html=1;recursiveResize=0;fillColor=none;" vertex="1" parent="48">
                        <mxGeometry x="260" y="280" width="190" height="100" as="geometry"/>
                    </mxCell>
                </UserObject>
                <mxCell id="118" value="&lt;p style=&quot;margin:0px;margin-top:4px;text-align:center;&quot;&gt;&lt;/p&gt;&lt;p style=&quot;margin:0px;margin-left:8px;text-align:center;&quot;&gt;index.html&lt;/p&gt;" style="shape=rect;html=1;overflow=fill;whiteSpace=wrap;align=center;fillColor=none;" vertex="1" parent="117">
                    <mxGeometry x="9" y="30" width="170" height="60" as="geometry"/>
                </mxCell>
                <mxCell id="120" value="mount volume from" style="edgeStyle=elbowEdgeStyle;html=1;endArrow=open;endSize=12;dashed=1;verticalAlign=bottom;" edge="1" parent="48" source="26" target="117">
                    <mxGeometry x="0.0378" y="14" width="160" relative="1" as="geometry">
                        <mxPoint x="1000" y="472.3568856447687" as="sourcePoint"/>
                        <mxPoint x="1180" y="470" as="targetPoint"/>
                        <Array as="points">
                            <mxPoint x="300" y="200"/>
                        </Array>
                        <mxPoint as="offset"/>
                    </mxGeometry>
                </mxCell>
                <UserObject label="servicea1" link="https://github.com/eliezerb2/apache-knox-docker/blob/master/knoxgw" id="85">
                    <mxCell style="shape=folder;xSize=90;align=left;spacingLeft=10;align=left;verticalAlign=top;spacingLeft=5;spacingTop=-4;tabWidth=70;tabHeight=20;tabPosition=left;html=1;recursiveResize=0;fillColor=none;" vertex="1" parent="48">
                        <mxGeometry x="10" y="380" width="190" height="100" as="geometry"/>
                    </mxCell>
                </UserObject>
                <mxCell id="92" value="&lt;p style=&quot;margin:0px;margin-top:4px;text-align:center;&quot;&gt;&lt;/p&gt;&lt;p style=&quot;margin:0px;margin-left:8px;text-align:center;&quot;&gt;index.html&lt;/p&gt;" style="shape=rect;html=1;overflow=fill;whiteSpace=wrap;align=center;fillColor=none;" vertex="1" parent="85">
                    <mxGeometry x="9" y="30" width="170" height="60" as="geometry"/>
                </mxCell>
                <mxCell id="119" value="mount volume from" style="edgeStyle=elbowEdgeStyle;html=1;endArrow=open;endSize=12;dashed=1;verticalAlign=bottom;" edge="1" parent="48" source="23" target="85">
                    <mxGeometry x="-0.0013" width="160" relative="1" as="geometry">
                        <mxPoint x="990" y="462.3568856447688" as="sourcePoint"/>
                        <mxPoint x="1211" y="499.99678832116786" as="targetPoint"/>
                        <Array as="points">
                            <mxPoint x="50" y="280"/>
                        </Array>
                        <mxPoint as="offset"/>
                    </mxGeometry>
                </mxCell>
                <mxCell id="81" value="&lt;p style=&quot;margin:0px;margin-top:4px;text-align:center;&quot;&gt;&amp;lt;&amp;lt;baseimage&amp;gt;&amp;gt;&lt;br&gt;&lt;b&gt;nginx latest&lt;/b&gt;&lt;/p&gt;&lt;hr&gt;&lt;p style=&quot;margin:0px;margin-left:8px;text-align:center;&quot;&gt;&lt;br&gt;&lt;/p&gt;" style="shape=rect;html=1;overflow=fill;whiteSpace=wrap;align=center;fillColor=none;" vertex="1" parent="1">
                    <mxGeometry x="131" y="640" width="169" height="60" as="geometry"/>
                </mxCell>
                <mxCell id="123" value="" style="edgeStyle=elbowEdgeStyle;html=1;endArrow=open;endSize=12;dashed=1;verticalAlign=bottom;" edge="1" parent="1" source="106" target="81">
                    <mxGeometry width="160" relative="1" as="geometry">
                        <mxPoint x="943.272727272727" y="150" as="sourcePoint"/>
                        <mxPoint x="528.7272727272725" y="530" as="targetPoint"/>
                        <Array as="points">
                            <mxPoint x="260" y="530"/>
                        </Array>
                    </mxGeometry>
                </mxCell>
                <mxCell id="127" value="" style="edgeStyle=elbowEdgeStyle;html=1;endArrow=open;endSize=12;dashed=1;verticalAlign=bottom;" edge="1" parent="1" source="40" target="42">
                    <mxGeometry width="160" relative="1" as="geometry">
                        <mxPoint x="226" y="380" as="sourcePoint"/>
                        <mxPoint x="226" y="650" as="targetPoint"/>
                    </mxGeometry>
                </mxCell>
            </root>
        </mxGraphModel>
    </diagram>
</mxfile>